<mxfile host="app.diagrams.net" modified="2023-05-24T11:09:52.240Z" agent="Mozilla/5.0 (Macintosh; Intel Mac OS X 10_15_7) AppleWebKit/537.36 (KHTML, like Gecko) Chrome/113.0.0.0 Safari/537.36" version="21.3.3" etag="cT0ElvMD9wwb3E9CAlzx" type="github">
  <diagram name="第 1 页" id="g5SDatlzzO22ma-Pl3-U">
    <mxGraphModel>
      <root>
        <mxCell id="0" />
        <mxCell id="1" parent="0" />
      </root>
    </mxGraphModel>
  </diagram>
</mxfile>
